<svg xmlns="http://www.w3.org/2000/svg" version="1.1" width="600px" height="600px" viewBox="0 0 200 200" style="overflow:hidden!important;"><defs id="SvgjsDefs47947"><linearGradient id="SvgjsLinearGradient49839" x1="81.9825" y1="87.8318" x2="81.9825" y2="111.9101" gradientUnits="userSpaceOnUse" class="svga-on-canvas-glasses-gradient-single-0-null"><stop id="SvgjsStop49840" stop-opacity="1" stop-color="#9ab4d3" offset="0" ></stop><stop id="SvgjsStop49841" stop-opacity="0.7593" stop-color="#93aed1" offset="0.2407" ></stop><stop id="SvgjsStop49842" stop-opacity="0.4009" stop-color="#7e9ecc" offset="0.5991" ></stop><stop id="SvgjsStop49843" stop-opacity="0" stop-color="#6086c4" offset="1" ></stop></linearGradient><linearGradient id="SvgjsLinearGradient49845" x1="-18.0175" y1="87.8318" x2="-18.0175" y2="111.9101" gradientTransform="matrix(-1 0 0 1 100 0)" gradientUnits="userSpaceOnUse" class="svga-on-canvas-glasses-gradient-single-1-null"><stop id="SvgjsStop49846" stop-opacity="1" stop-color="#9ab4d3" offset="0" ></stop><stop id="SvgjsStop49847" stop-opacity="0.7593" stop-color="#93aed1" offset="0.2407" ></stop><stop id="SvgjsStop49848" stop-opacity="0.4009" stop-color="#7e9ecc" offset="0.5991" ></stop><stop id="SvgjsStop49849" stop-opacity="0" stop-color="#6086c4" offset="1" ></stop></linearGradient><linearGradient id="SvgjsLinearGradient54196" x1="80.9656" y1="87.264" x2="80.9656" y2="114.3098" gradientUnits="userSpaceOnUse" class="svga-on-canvas-glasses-gradient-single-0-null"><stop id="SvgjsStop54197" stop-opacity="1" stop-color="#ff73b2" offset="0.004166667" ></stop><stop id="SvgjsStop54198" stop-opacity="0.8085" stop-color="#ff75ae" offset="0.1949" ></stop><stop id="SvgjsStop54199" stop-opacity="0.5986" stop-color="#ff79a0" offset="0.4039" ></stop><stop id="SvgjsStop54200" stop-opacity="0.3799" stop-color="#ff818a" offset="0.6217" ></stop><stop id="SvgjsStop54201" stop-opacity="0.1566" stop-color="#ff8b6c" offset="0.844" ></stop><stop id="SvgjsStop54202" stop-opacity="0" stop-color="#ff9452" offset="1" ></stop></linearGradient><linearGradient id="SvgjsLinearGradient54204" x1="-19.0344" y1="87.264" x2="-19.0344" y2="114.3098" gradientTransform="matrix(-1 0 0 1 100 0)" gradientUnits="userSpaceOnUse" class="svga-on-canvas-glasses-gradient-single-1-null"><stop id="SvgjsStop54205" stop-opacity="1" stop-color="#ff73b2" offset="0.004166667" ></stop><stop id="SvgjsStop54206" stop-opacity="0.8085" stop-color="#ff75ae" offset="0.1949" ></stop><stop id="SvgjsStop54207" stop-opacity="0.5986" stop-color="#ff79a0" offset="0.4039" ></stop><stop id="SvgjsStop54208" stop-opacity="0.3799" stop-color="#ff818a" offset="0.6217" ></stop><stop id="SvgjsStop54209" stop-opacity="0.1566" stop-color="#ff8b6c" offset="0.844" ></stop><stop id="SvgjsStop54210" stop-opacity="0" stop-color="#ff9452" offset="1" ></stop></linearGradient><linearGradient id="SvgjsLinearGradient55718" x1="81.6801" y1="85.449" x2="81.6801" y2="113.6917" gradientUnits="userSpaceOnUse" class="svga-on-canvas-glasses-gradient-single-0-null"><stop id="SvgjsStop55719" stop-opacity="1" stop-color="#150000" offset="0.004166667" ></stop><stop id="SvgjsStop55720" stop-opacity="0.8088" stop-color="#190300" offset="0.1945" ></stop><stop id="SvgjsStop55721" stop-opacity="0.6342" stop-color="#240c00" offset="0.3684" ></stop><stop id="SvgjsStop55722" stop-opacity="0.466" stop-color="#361b00" offset="0.5359" ></stop><stop id="SvgjsStop55723" stop-opacity="0.3018" stop-color="#503100" offset="0.6994" ></stop><stop id="SvgjsStop55724" stop-opacity="0.1421" stop-color="#724c00" offset="0.8585" ></stop><stop id="SvgjsStop55725" stop-opacity="0" stop-color="#966a00" offset="1" ></stop></linearGradient><linearGradient id="SvgjsLinearGradient55727" x1="-18.3199" y1="85.449" x2="-18.3199" y2="113.6917" gradientTransform="matrix(-1 0 0 1 100 0)" gradientUnits="userSpaceOnUse" class="svga-on-canvas-glasses-gradient-single-1-null"><stop id="SvgjsStop55728" stop-opacity="1" stop-color="#150000" offset="0.004166667" ></stop><stop id="SvgjsStop55729" stop-opacity="0.8088" stop-color="#190300" offset="0.1945" ></stop><stop id="SvgjsStop55730" stop-opacity="0.6342" stop-color="#240c00" offset="0.3684" ></stop><stop id="SvgjsStop55731" stop-opacity="0.466" stop-color="#361b00" offset="0.5359" ></stop><stop id="SvgjsStop55732" stop-opacity="0.3018" stop-color="#503100" offset="0.6994" ></stop><stop id="SvgjsStop55733" stop-opacity="0.1421" stop-color="#724c00" offset="0.8585" ></stop><stop id="SvgjsStop55734" stop-opacity="0" stop-color="#966a00" offset="1" ></stop></linearGradient><linearGradient id="SvgjsLinearGradient57096" x1="82.1605" y1="89.1997" x2="82.1605" y2="110.4876" gradientUnits="userSpaceOnUse" class="svga-on-canvas-glasses-gradient-single-0-null"><stop id="SvgjsStop57097" stop-opacity="1" stop-color="#3d2d1c" offset="0.0208" ></stop><stop id="SvgjsStop57098" stop-opacity="0.6291" stop-color="#402e1c" offset="0.3825" ></stop><stop id="SvgjsStop57099" stop-opacity="0.3897" stop-color="#48321d" offset="0.6159" ></stop><stop id="SvgjsStop57100" stop-opacity="0.1881" stop-color="#57381f" offset="0.8124" ></stop><stop id="SvgjsStop57101" stop-opacity="7.593334e-03" stop-color="#6c4221" offset="0.9884" ></stop><stop id="SvgjsStop57102" stop-opacity="0" stop-color="#6d4221" offset="0.9958" ></stop></linearGradient><linearGradient id="SvgjsLinearGradient57104" x1="-17.8395" y1="89.1997" x2="-17.8395" y2="110.4876" gradientTransform="matrix(-1 0 0 1 100 0)" gradientUnits="userSpaceOnUse" class="svga-on-canvas-glasses-gradient-single-1-null"><stop id="SvgjsStop57105" stop-opacity="1" stop-color="#3d2d1c" offset="0.0208" ></stop><stop id="SvgjsStop57106" stop-opacity="0.6291" stop-color="#402e1c" offset="0.3825" ></stop><stop id="SvgjsStop57107" stop-opacity="0.3897" stop-color="#48321d" offset="0.6159" ></stop><stop id="SvgjsStop57108" stop-opacity="0.1881" stop-color="#57381f" offset="0.8124" ></stop><stop id="SvgjsStop57109" stop-opacity="7.593334e-03" stop-color="#6c4221" offset="0.9884" ></stop><stop id="SvgjsStop57110" stop-opacity="0" stop-color="#6d4221" offset="0.9958" ></stop></linearGradient><linearGradient id="SvgjsLinearGradient57794" x1="81.2869" y1="113.6762" x2="81.2869" y2="89.427" gradientTransform="matrix(1 0 0 -1 0 202)" gradientUnits="userSpaceOnUse" class="svga-on-canvas-glasses-gradient-single-0-null"><stop id="SvgjsStop57795" stop-opacity="1" stop-color="#3d2d1c" offset="0.0208" ></stop><stop id="SvgjsStop57796" stop-opacity="0.6291" stop-color="#402e1c" offset="0.3825" ></stop><stop id="SvgjsStop57797" stop-opacity="0.3897" stop-color="#48321d" offset="0.6159" ></stop><stop id="SvgjsStop57798" stop-opacity="0.1881" stop-color="#57381f" offset="0.8124" ></stop><stop id="SvgjsStop57799" stop-opacity="7.593334e-03" stop-color="#6c4221" offset="0.9884" ></stop><stop id="SvgjsStop57800" stop-opacity="0" stop-color="#6d4221" offset="0.9958" ></stop></linearGradient><linearGradient id="SvgjsLinearGradient57802" x1="-1736.4185" y1="113.6762" x2="-1736.4185" y2="89.427" gradientTransform="matrix(-1 0 0 -1 -1617.7053 202)" gradientUnits="userSpaceOnUse" class="svga-on-canvas-glasses-gradient-single-1-null"><stop id="SvgjsStop57803" stop-opacity="1" stop-color="#3d2d1c" offset="0.0208" ></stop><stop id="SvgjsStop57804" stop-opacity="0.6291" stop-color="#402e1c" offset="0.3825" ></stop><stop id="SvgjsStop57805" stop-opacity="0.3897" stop-color="#48321d" offset="0.6159" ></stop><stop id="SvgjsStop57806" stop-opacity="0.1881" stop-color="#57381f" offset="0.8124" ></stop><stop id="SvgjsStop57807" stop-opacity="7.593334e-03" stop-color="#6c4221" offset="0.9884" ></stop><stop id="SvgjsStop57808" stop-opacity="0" stop-color="#6d4221" offset="0.9958" ></stop></linearGradient><linearGradient id="SvgjsLinearGradient60253" x1="80.965" y1="115.5409" x2="80.965" y2="91.2475" gradientTransform="matrix(1 0 0 -1 0 202)" gradientUnits="userSpaceOnUse" class="svga-on-canvas-glasses-gradient-single-0-null"><stop id="SvgjsStop60254" stop-opacity="1" stop-color="#899ba1" offset="0" ></stop><stop id="SvgjsStop60255" stop-opacity="0.6554" stop-color="#7490b3" offset="0.3446" ></stop><stop id="SvgjsStop60256" stop-opacity="0.2966" stop-color="#6589c0" offset="0.7034" ></stop><stop id="SvgjsStop60257" stop-opacity="0" stop-color="#6086c4" offset="1" ></stop></linearGradient><linearGradient id="SvgjsLinearGradient60259" x1="-1737.0349" y1="115.5409" x2="-1737.0349" y2="91.2475" gradientTransform="matrix(-1 0 0 -1 -1618 202)" gradientUnits="userSpaceOnUse" class="svga-on-canvas-glasses-gradient-single-1-null"><stop id="SvgjsStop60260" stop-opacity="1" stop-color="#899ba1" offset="0" ></stop><stop id="SvgjsStop60261" stop-opacity="0.6554" stop-color="#7490b3" offset="0.3446" ></stop><stop id="SvgjsStop60262" stop-opacity="0.2966" stop-color="#6589c0" offset="0.7034" ></stop><stop id="SvgjsStop60263" stop-opacity="0" stop-color="#6086c4" offset="1" ></stop></linearGradient></defs><g id="svga-group-wrapper"><g id="svga-group-backs-single"></g><g id="svga-group-humanwrap-move" transform="matrix(1,0,0,1,0,-6)"><g id="svga-group-humanwrap" transform="matrix(1,0,0,1,0,0)"><g id="svga-group-hair-back-move" transform="matrix(0.9986295346632303,0.05233595798588117,-0.05233595798588117,0.9986295346632303,7.725760441629731,-5.034878324756505)"><g id="svga-group-hair-back" transform="matrix(1,0,0,1,0,0)"><path id="SvgjsPath60860" d="M58.6 164.6s47.6 7 84.6.2c0 0 3.1-70.8-1.9-80.7s-75.1-17.4-80.7 1-3.4 72-2 79.5z" fill="#e2b5a1" stroke-width="none" opacity="1"></path></g></g><g id="svga-group-humanbody-back"><path id="SvgjsPath60693" d="m168.5 219.5-1.7-21.5s.7-9-8.8-15.3-23.4-10.1-29.5-14.2c-6.1-4.1-9.2-4.5-9-16.9s.9-40.3.9-40.3H79.6s.7 27.9.9 40.3c.2 12.4-2.9 12.8-9 16.9-6.1 4.1-20 7.9-29.5 14.2S33.2 198 33.2 198l-1.6 21.5h136.9z" fill="#f3d4cf" stroke-width="none" opacity="1"></path></g><g id="svga-group-chinshadow-single"><path id="SvgjsPath60689" d="M80.4 155.4c5.9 5.8 12.6 9.3 19.6 9.3s13.7-3.5 19.6-9.3c-.1-1.1-.1-2.4-.1-3.8.2-12.4.9-40.3.9-40.3H79.6s.7 27.9.9 40.3c0 1.4 0 2.7-.1 3.8z" fill="#d4958a" stroke-width="none" opacity="0.65"></path></g><g id="svga-group-humanbody-front"><path id="SvgjsPath60694" d="M73.8 175.9c5.1 2.9 11.8 5.2 17.6 5.7.4 0 .4-.6.1-.7-2.8-1.1-5.9-1.7-8.8-2.6-2.9-.9-5.8-2-8.8-2.7-.1-.1-.3.2-.1.3zm35.2 6.2c5.3-.6 11.3-3 15.9-5.8.3-.2.1-.6-.2-.5-2.6.9-5.2 2-7.8 2.9-2.6.9-5.4 1.5-8 2.5-.5.1-.5.9.1.9z" fill="#d4958a" stroke-width="none" opacity="1"></path><path id="SvgjsPath60695" d="m168.4 219.4-2.1-21.4c0-2.2-.5-4.5-1.5-6.6-.9-2.1-2.3-3.9-3.9-5.5s-3.5-2.8-5.5-4c-2-1.2-4.1-2.2-6.2-3.1-4.2-1.9-8.6-3.6-12.9-5.4-2.2-.9-4.3-1.9-6.4-3-1.1-.6-2.1-1.2-3-1.9-1-.6-2-1.2-3-1.9s-2-1.5-2.8-2.6c-.8-1-1.3-2.2-1.7-3.4-.7-2.4-.8-4.8-.8-7.2 0-4.7.2-9.4.3-14.1.2-9.4.6-18.7.9-28l.6.6-20.4-.2-20.4-.1.3-.3.7 28c.1 4.7.3 9.3.4 14 0 2.4-.1 4.7-.8 7.1-.3 1.2-.9 2.3-1.6 3.3-.8 1-1.7 1.8-2.7 2.5s-2 1.3-2.9 2c-.9.6-1.9 1.3-3 1.9-2.1 1.2-4.2 2.1-6.4 3.1-4.3 1.9-8.6 3.6-12.8 5.6-2.1 1-4.2 2.1-6.1 3.2-2 1.2-3.8 2.4-5.4 4-1.6 1.6-2.9 3.4-3.8 5.4-.4 1-.8 2.1-1 3.1-.2 1.1-.4 2.2-.3 3.2v.2l-1.5 21.5-1-1.1 34 .1c11.3 0 22.7.1 34.1.2l34.2.3 34.4.5zm.2.2-34 .4-34.2.3c-11.4.1-22.9.2-34.4.2l-34.4.1h-1.1l.1-1.1 1.7-21.5v.1c-.1-5.1 2.2-9.8 5.7-13.3 1.7-1.7 3.8-3.1 5.8-4.3 2-1.2 4.2-2.2 6.3-3.2 4.3-2 8.7-3.7 13-5.4 2.1-.9 4.3-1.8 6.3-2.9 1-.5 1.9-1.1 3-1.8 1-.6 2-1.2 2.9-1.9.9-.6 1.8-1.4 2.4-2.2.7-.9 1.2-1.9 1.5-2.9.6-2.1.8-4.5.8-6.8 0-4.6-.1-9.3-.2-14l-.6-28v-.3h.3l20.4-.1 20.4-.2h.6v.6c-.1 9.3-.2 18.7-.4 28-.1 4.7-.2 9.4-.2 14 .1 2.3.2 4.6.8 6.7.3 1.1.8 2 1.4 2.9.6.8 1.4 1.6 2.4 2.2.9.6 1.9 1.3 2.9 1.9 1 .7 1.9 1.3 2.9 1.8 2 1.1 4.1 2.1 6.3 3 4.3 1.8 8.6 3.6 12.9 5.6 2.1 1 4.2 2.1 6.2 3.3 2 1.2 4 2.6 5.7 4.3 3.4 3.4 5.6 8.1 5.4 13v-.1l1.4 21.6zm-112.8-.4 1.9-13.8.1 13.8h-2zm88.6 0-1.9-13.8-.1 13.8h2z" fill="#c5796d" stroke-width="none" opacity="1"></path></g><g id="svga-group-clothes-single"><path id="SvgjsPath60835" d="M27.5 220c-1.4-8.2 1.3-23.2 1.8-26s3.9-6.8 3.9-6.8 1.2-2.6 5.1-6c4-3.5 15.4-6.4 15.9-7.6.5-1.2 2.7-2.3 2.7-2.3-1-4.2 2.1-7.8 3.6-11.4 1.5-3.6 4.9-5.6 4.9-5.6 3.7-6.2 12.5-7 12.5-7s.6 5.3.6 7.8-.1 6.1-.8 7.7-.8 2.3-.8 2.3.2 3.2 5.8 7.4 7.2 6.9 12.5 9.2c3.7 1.7 6.7 5.2 6.7 5.2s0-2.6 3.1-5.2c4.5-3.8 6.9-5 12.5-9.2s5.8-7.4 5.8-7.4-.1-1-.5-2.7c-.4-2-.3-4.4-.3-6.9s.8-8.4.8-8.4 7.7 1 11.4 7.2c0 0 3.3 2.1 4.9 5.6s4.6 7.2 3.6 11.4c0 0 2.2 1.2 2.7 2.3.5 1.2 11.9 4.1 15.9 7.6s5.1 6 5.1 6 3.3 4 3.9 6.8c.5 2.8 3.2 17.8 1.8 26" fill="#f5b1c3" stroke-width="none" opacity="1" stroke="none"></path><path id="SvgjsPath60836" d="M173.2 211.5c-.1-2.9-.2-5.7-.6-8.5s-.7-5.6-1.1-8.5c-.1-.7-.3-1.5-.6-2.2-.3-.7-.6-1.4-1-2-.7-1.2-1.5-2.4-2.4-3.5-.6-1.2-1.3-2.1-2.1-3.1s-1.7-1.9-2.6-2.7c-.9-.9-2-1.6-3.1-2.2-1.1-.6-2.2-1.1-3.4-1.6-2.3-1-4.6-1.9-6.8-2.8-.6-.2-1.1-.4-1.7-.7-.3-.1-.5-.2-.8-.4-.1-.1-.2-.1-.3-.2 0 0-.1 0-.1-.1l-.1-.1c-.1-.1-.1-.2-.2-.3-.1-.2-.2-.3-.4-.5-.3-.3-.5-.5-.8-.7-.3-.3-.7-.5-1-.7.2-1.6 0-3.3-.6-4.7-.6-1.7-1.4-3.1-2.2-4.6-.4-.7-.7-1.4-1.1-2.2-.4-.8-.8-1.6-1.4-2.3-1-1.4-2.2-2.5-3.6-3.5-1.3-2.1-3.1-3.8-5.1-5-1.1-.6-2.2-1.1-3.3-1.6-1.2-.4-2.3-.7-3.6-.9-.5-.1-2.9-.2-2.9-.2-1.5 11 1.8 18.5 1.9 19.2 0 .1-.1.4-.2.6v.1l-.3.6v.1c0 .1 0 .1-.1.2-.3.5-.6.9-.9 1.4-.7 1-1.6 1.9-2.6 2.7-.1.1-.3.2-.4.3-.2.2-.5.4-.7.6-.7.5-1.5 1.1-2.2 1.6-.9.7-1.8 1.4-2.8 2.2 0 0-.1 0-.1.1-2.1 1.5-4.3 3-6.3 4.7-1.7 1.4-3.7 3.1-4.3 5.6-1.8-1.8-3.8-3.3-6.1-4.4-2.6-1.1-4.9-2.6-7-4.5-1.1-.9-2.1-1.9-3.2-2.8-1.1-.9-2.2-1.8-3.3-2.6-1.1-.9-2.1-1.8-3-2.9-.3-.4-.6-.8-.8-1.2-.2-.4-.2-.8-.3-1.2-.1-.4-.2-.9-.2-1.2v-.1l-.1-.2c-.1-.1-.1-.3-.2-.5.1-.4.3-.8.5-1.1 2.3-1.9 2.5-9.2 2.4-10.8-.1-1.5-.2-5.8-.2-5.8-1.3.1-4.7.6-5.9.9-1.2.4-2.4.8-3.5 1.4-2.2 1.1-4.3 2.7-5.7 4.9-1.4.9-2.7 2.1-3.7 3.4-.5.7-1 1.4-1.4 2.3-.3.8-.7 1.4-1.1 2.2-.8 1.4-1.6 2.9-2.2 4.6-.5 1.4-.8 3.1-.6 4.7-.4.2-.7.5-1.1.8-.3.2-.5.4-.8.7-.1.1-.2.3-.4.4-.1.1-.1.2-.2.3v.1l-.1.1c-.1.1-.2.1-.3.2-.2.1-.5.2-.8.4-.5.2-1.1.5-1.7.7-2.3.9-4.6 1.7-6.8 2.7-1.1.5-2.3 1-3.4 1.6-1.1.6-2.2 1.4-3.1 2.2-.9.8-1.8 1.7-2.6 2.7-.8.9-1.5 1.9-2.1 3.1-.9 1.1-1.7 2.3-2.4 3.5-.4.6-.7 1.3-1 2-.3.7-.5 1.5-.6 2.2-.5 2.8-.9 5.6-1.2 8.5s-.5 5.7-.6 8.5c0 2.9 0 5.7.6 8.5h.2c-.4-2.8-.3-5.6-.1-8.5.2-2.8.5-5.6.9-8.4.4-2.8.9-5.6 1.4-8.4.1-.7.3-1.3.5-1.9.3-.6.6-1.2 1-1.8.7-1.2 1.5-2.3 2.4-3.4l.1-.1v-.1c.5-.9 1.2-1.9 2-2.8.8-.9 1.6-1.7 2.5-2.5 1.7-1.6 3.9-2.6 6.1-3.5 2.2-.9 4.5-1.8 6.8-2.6.6-.2 1.2-.4 1.7-.7.1 0 .2-.1.2-.1-.4.8-.8 1.6-1.1 2.4-.4 1.3-.7 2.7-.3 4.2.3.8.7 1.3 1.2 1.8s1 1 1.5 1.4c1.1.9 2.2 1.6 3.3 2.3 2.3 1.4 4.7 2.6 7.1 3.7 1.2.5 2.4 1.1 3.7 1.5 1.3.4 2.7.7 4 .9 2.7.4 5.3.5 8 .6 2.7.1 5.3.1 7.9.1 1.3 0 2.6.1 3.9.2l3.9.4c.6.1 1.2.1 1.7.2-2.1 2.1-4.3 5.2-5.4 9.6-1.4 6 .7 7.6 1.7 8 .3.1.7.2 1.1.2 1.4 0 2.9-1 3.8-2.6.7-1.2 1.4-3.5 2-6.1 0 7 .7 12.8.8 13.2.1.5.5.9 1 .9h.1c.6-.1.9-.6.9-1.1 0-.1-1.1-9.2-.6-18.3 1.5 6.3 3.9 15.4 6.7 18.8.3.4 1 .5 1.4.1s.5-1 .1-1.4c-2.9-3.5-5.6-14.9-6.9-20.7.1 0 .1-.1.2-.1 2.2 3.6 3.5 8.3 4.4 11.7.5 1.8.8 3.2 1.2 4.1.7 1.6 2.4 2.6 4.1 2.6.5 0 1.1-.1 1.5-.3 1-.4 4-2.3 1.2-9.2-2-4.9-5.4-8.3-8.4-10.5.3-.1.7-.3 1.1-.4 1.9-.6 3.9-1.3 5.8-1.4.4 0 1.1-.1 1.6-.2l1.5-.3c1-.2 2-.5 3-.8 2-.6 3.9-1.3 5.8-2 3.8-1.5 7.6-3.2 11.2-5.2 1.8-1 3.6-2.3 4.9-4 .6-.9 1.2-1.8 1.5-2.8.2-.6.4-1.2.4-1.8.1.1.2.1.3.2.3.1.6.3.9.4.6.2 1.2.5 1.7.7 2.3.9 4.6 1.7 6.8 2.6 2.2.9 4.4 1.9 6.1 3.5.9.8 1.7 1.6 2.5 2.5.8.9 1.5 1.9 2 2.8v.1l.1.1c.9 1 1.7 2.2 2.4 3.3.4.6.7 1.2.9 1.8.3.6.4 1.2.6 1.9.5 2.8 1 5.6 1.4 8.4.4 2.8.7 5.6.9 8.4.2 2.8.2 5.7-.1 8.5h.2c1.1-2.9 1.2-5.8 1.2-8.6zm-49.2-48c-.1-.3-.1-.7-.2-1-.2-.8-.2-1.4-.3-2.1-.1-1.4-.1-2.9-.1-4.4 0-1.5.1-2.9.3-4.4 0-.2.1-.5.1-.7.7 1 1.2 2.1 1.5 3.2.3 1.4.4 2.8.3 4.2-.1 1.4-.4 2.8-.9 4.1-.2.4-.5.8-.7 1.1zm-46.2-2.9c-.1.7-.2 1.4-.6 2.1-.1.1-.1.3-.2.4-.2-.6-.3-1.2-.4-1.7-.2-1.1-.4-2.2-.4-3.3-.1-1.1 0-2.1.4-3.1.3-.8.7-1.6 1.4-2.4.1 1.2.2 2.4.1 3.6-.1 1.4-.1 2.9-.3 4.4zm19.7 48.6c-.7 1.2-1.8 1.7-2.4 1.5-.8-.3-1.3-2.2-.5-5.7 1.2-4.8 4-8 6.1-9.8h.3c-.8 4.8-2.3 12-3.5 14zm4.6-17.4c-.2.1-1.5.8-3.1 2.3-.8-.1-1.7-.3-2.5-.4-2.6-.4-5.2-1-7.9-1.1-5.3-.4-10.6-.4-15.6-1.2-1.3-.2-2.5-.5-3.7-.8-1.2-.4-2.4-.9-3.6-1.4-2.4-1-4.8-2.1-7.1-3.3-1.2-.6-2.2-1.3-3.3-2-1-.7-2.1-1.5-2.6-2.5-.4-1.1-.3-2.4 0-3.6.2-1 .5-1.9 1-2.9 0 0 .1-.1.2-.1.2-.1.3-.2.5-.3.2-.1.3-.2.6-.5l.2-.3s0-.1.1-.1c0-.1.1-.2.2-.3.2-.2.4-.4.6-.5s.5-.3.7-.5v1.3c.1.8.4 1.6.7 2.4.7 1.5 1.7 2.9 2.7 4.2 1.1 1.2 2.3 2.4 3.6 3.4.7.5 1.3 1 2 1.5.7.4 1.4.9 2.1 1.3-1.2-1.2-2.4-2.3-3.5-3.4-1.2-1.1-2.3-2.3-3.3-3.5-1-1.2-2-2.5-2.8-3.9-.4-.7-.7-1.4-1-2.2-.1-.4-.2-.9-.3-1.3.2-.1.3-.2.4-.3.3-.2.5-.6.4-1-.3-1.4-.2-2.9.3-4.4.5-1.5 1.3-2.9 2.1-4.4.4-.7.8-1.5 1.1-2.3.3-.7.7-1.4 1.1-2 .4-.6.9-1.1 1.4-1.7-.7 1.5-1 3.1-1 4.8.1 2.6 1.3 5 2.6 7.1 1.3 2.2 2.7 4.3 4.4 6.2 1.7 1.9 3.8 3.5 6 4.8 2.2 1.3 4.6 2.2 6.9 3.1 2.4.9 4.8 1.7 7.2 2.4 2.4.8 4.8 1.5 7 2.7 2 1 3.8 2.3 5.4 3.9 0 .5-.1.6-.2.8zm13.5 13.3c1.4 3.4 1.3 6-.2 6.6-1.1.4-2.6-.2-3.1-1.2-.3-.8-.7-2.2-1.2-3.9-.9-3.4-2.1-8-4.3-11.8 2.9 1.8 6.7 5.2 8.8 10.3zm27.5-26.3c-1.3 1.4-3 2.4-4.8 3.3-3.6 1.8-7.4 3.3-11.2 4.8l-5.7 2.3c-.9.4-1.9.7-2.8 1.1-.5.2-.9.3-1.4.4-.5.1-.9.2-1.4.3-2.1.4-4 1.1-5.9 1.8l-1.5.6c-2.3-1.6-4.3-2.3-4.8-2.3-.2 0-.3.1-.5.1h-.2c-.2 0-.4.1-.6.2-1.5-1.6-3.3-3.1-5.2-4.2-2.2-1.3-4.6-2.1-7-3-4.7-1.7-9.5-3.2-13.8-5.7-2.1-1.2-4.1-2.7-5.8-4.5-1.7-1.8-3.1-3.9-4.4-6-.7-1.1-1.3-2.1-1.8-3.2s-.8-2.3-1-3.5c-.2-1.7.1-3.5.8-5.1.5-.4 1-.9 1.5-1.2h.1l.2-.2c1.2-2 3-3.6 5.1-4.7 1.1-.6 2.2-1 3.3-1.4 1-.3 2-.6 3-.7.2 1.3.3 2.6.4 4v.6c-1 .4-1.9 1.2-2.5 2.1-.7 1.1-1.1 2.4-1.1 3.7-.1 1.3.1 2.5.3 3.7.3 1.2.7 2.4 1.3 3.5.1.4.2.8.4 1.2.2.4.5.9.7 1.3.3.4.6.8 1 1.1l.9.6c.8.9 1.6 1.7 2.4 2.4 1.1.9 2.2 1.7 3.3 2.6 1.1.9 2.1 1.8 3.2 2.8 1.1.9 2.2 1.9 3.3 2.7 1.2.8 2.5 1.5 3.7 2.1 2.4 1.2 4.6 3.1 6.4 5.1.1.1.2.2.4.2.3 0 .6-.2.6-.5.1-1.1.7-2.3 1.4-3.2.7-1 1.8-1.7 2.8-2.5 2-1.6 4.2-3 6.4-4.5 1.1-.7 2.2-1.5 3.2-2.3.3-.2.7-.5 1-.7l1-.6c.8-.5 1.6-1 2.3-1.7.7-.6 1.4-1.3 2-2.1.3-.4.6-.8.8-1.3.1-.2.2-.5.3-.8 0-.1.1-.3.1-.4l.6-.6c.3-.3.6-.6.8-1 .5-.7.9-1.4 1.2-2.2.6-1.5.8-3.1.7-4.7 0-1.6-.3-3.1-.9-4.6-.5-1.2-1.3-2.3-2.3-3.1l.3-2.4 2.1.6c1 .4 2 .9 3 1.4 1.9 1.1 3.5 2.6 4.6 4.4l.3.3c.2.1.4.3.6.5 0 1.6-.2 3.1-.7 4.6-.6 1.9-1.6 3.7-2.8 5.2-2.5 3.1-5.7 5.6-9.2 7.6-.9.5-1.8.9-2.7 1.3-.9.4-1.9.9-2.8 1.4-1.8 1-3.6 2-5.2 3.2s-3.3 2.4-4.8 3.8c-.8.7-1.5 1.4-2.1 2.2-.6.8-1.3 1.6-1.5 2.6.3-1 1.1-1.7 1.7-2.5.7-.7 1.5-1.4 2.3-2 1.6-1.3 3.2-2.4 4.9-3.5 1.7-1.1 3.4-2.1 5.2-3 .9-.5 1.8-.9 2.7-1.3.9-.4 1.9-.8 2.8-1.3 1.8-1 3.5-2.2 5.1-3.5 1.6-1.3 3-2.8 4.3-4.4 2.2-2.9 3.4-6.6 3.1-10.2.9.7 1.8 1.6 2.5 2.6.4.6.9 1.3 1.1 1.9.3.8.7 1.6 1.1 2.3.8 1.5 1.6 2.9 2.1 4.3s.7 2.9.4 4.3c-.1.3 0 .6.2.9-1.1.9-2.2 1.7-3.4 2.4-1.4.9-3 1.7-4.6 2.3-1.6.6-3.2 1.1-4.9 1.6l-4.9 1.4c-1.7.5-3.3 1-4.9 1.6-.8.3-1.6.7-2.4 1.2-.4.2-.8.5-1.1.8-.3.3-.6.6-.9.8-2.7 2.1-5.8 3.6-8.4 5.9.3-.3.7-.5 1.1-.7l1.1-.6 2.3-1.2c1.5-.9 3-1.7 4.4-2.7.4-.2.7-.5 1.1-.8.3-.3.6-.5 1-.7.7-.4 1.5-.7 2.3-1 1.6-.6 3.2-1.1 4.9-1.6l4.9-1.5c1.6-.5 3.3-1 4.9-1.8 2.9-1.3 5.5-3.1 7.7-5.3l.2.2c.5.2 1 .6 1.4.9.2.2.4.3.6.5l.2.2.1.1.2.3c.2.3.4.4.5.5-.3 1.2-1.2 2.7-2.3 3.8zM42 203.8c-.7-2.5-1.7-5-2.9-7.3s-2.5-4.6-4.1-6.6c.9 2.5 1.8 4.9 2.6 7.3.9 2.4 1.7 4.8 2.4 7.2.3 1.2.6 2.4.9 3.7l.8 3.7c.5 2.5 1.1 5 1.7 7.5.2-2.6.1-5.2-.2-7.8-.1-2.6-.5-5.1-1.2-7.7zm117.5-7.6c-.7 1.1-1.2 2.3-1.7 3.5-.5 1.2-.8 2.4-1.1 3.7-.5 2.5-.7 5-.8 7.5 0 2.5.1 5 .5 7.5.4-2.5.7-4.9 1-7.4.4-2.4.7-4.9 1.2-7.2.5-2.4 1.1-4.6 2.2-6.8 1-2.1 2.4-4.2 4.1-6-2.2 1.1-4 3.1-5.4 5.2z" fill="#d6708b" stroke-width="none" opacity="1" stroke="none"></path><path id="SvgjsPath60837" d="M107.5 181.3c6.7-4 15.6-7.9 20-14.8 3.2-5 3.7-12.1-1-16.2-.3-.2-.8.1-.5.4 10.5 14.7-10.3 22.7-18.8 30.1-.3.2 0 .6.3.5zm30.2-23.2c-.1-.5-1-.5-1 0-1.4 8.9-6.9 13.3-14.7 17.2-5.8 2.8-11.3 5.4-15.1 10.8-.3.5.4 1.1.8.6 6.5-6.6 15.7-8.5 22.9-14 4.4-3.3 8.5-8.8 7.1-14.6zm-57 16.5c-8.2-5.3-14.7-16.3-5.2-24 .6-.5-.2-1.2-.7-.9-8 3.7-7.1 14-2.6 20.1 6.7 9 18.7 11.6 27.6 17.5.2.1.3-.1.2-.2-5.5-5.8-12.8-8.3-19.3-12.5zm15.8 15.5c-6.5-3.6-14.1-4.6-20.6-8.6-7-4.3-11.7-10.2-13.7-18.2-.1-.4-.7-.3-.6.1.4 7.5 5.4 14.1 11.2 18.5 6.3 4.7 15.6 8.9 23.5 9.4.5 0 .8-.9.2-1.2zm47.1-16.2c-6.3 8.2-15.4 10.1-25 12.1-.4.1-.2.6.2.5 9.3-1.2 20.3-3.6 25.5-12.3.2-.3-.4-.6-.7-.3zm26 24.6c-.5-3.4-.7-8.6-4.2-10.2v-.4c-2.4-6.2-11.4-11.6-18-11.3-.6 0-.7.9-.1 1.1 3.2 1.3 6.4 2.1 9.4 4 2.7 1.8 4.5 4.2 6.7 6.4-8.5 4.9-12.6 16.1-9.5 25.4.1.4.9.4.8-.1-1.2-10.3 2-17.9 9.7-24.3 5.9 7 3.7 19.7 4.8 28.2.1.6 1 .8 1.1.1.9-6.2.2-12.7-.7-18.9zM46.7 177.6c-5.3.9-9.7 5.4-11.9 10.1-.2.5.4.9.7.4 2.9-4.6 6.9-7.1 11.4-9.9.3-.2.1-.6-.2-.6zM33 191.9c-2.4 6.3-3.5 13.7-3.3 20.4 0 .5.8.5.8 0 .8-6.9 1.7-13.5 2.9-20.3.1-.3-.3-.4-.4-.1z" fill="#ffd2de" stroke-width="none" opacity="1" stroke="none"></path></g><g id="svga-group-head" transform="matrix(0.9986295346632303,0.05233595798588117,-0.05233595798588117,0.9986295346632303,7.725760441629731,-5.034878324756505)"><g id="svga-group-ears-left-move" transform="matrix(1,0,0,1,0,0)"><g id="svga-group-ears-left" transform="matrix(1,0,0,1,0,0)"><path id="SvgjsPath60637" d="M63.5 96.9s-3-5.1-4.6-7.4c-1.7-2.3-3.8-4.7-4.6-.7s-.8 11.6.3 16.9c1.1 5.2 5.8 10.5 7.8 10.5s3.4-7.9 3.3-10.6c-.1-2.7-1.1-6.7-2.2-8.7z" fill="#f3d4cf" stroke-width="none" opacity="1"></path><path id="SvgjsPath60638" d="M65.1 96.3c.3.7-.2 4.1 0 4.9.4 1.5.7 3.1.8 4.7 0 1.6-.1 3.1-.4 4.5-.2 1.4-.6 2.8-1 4.1-.2.6-.5 1.2-.9 1.7-.2.2-.4.5-.7.6-.1.1-.3.1-.5.1s-.3 0-.5-.1c-.6-.2-1.1-.5-1.6-.9-.3-.2-.5-.4-.7-.6l-.7-.7c-.9-1-1.8-2.2-2.5-3.5s-1.4-2.7-1.8-4.3l-.3-1.2c-.1-.4-.1-.8-.2-1.2-.1-.8-.2-1.6-.3-2.3-.2-1.5-.2-3.1-.3-4.6-.1-3-.1-6.1.3-9 .1-.7.3-1.5.8-2l.2-.2c.1 0 .1-.1.2-.1.1-.1.3-.1.4-.2.1 0 5.3.5 6 1.8.8 1.4 3.5 7.8 3.7 8.5zM58.8 90c-.8-1-1.7-2.1-2.5-2.5-.4-.2-.8-.2-1 .2-.3.3-.5.9-.6 1.5-.3 1.3-.5 2.7-.6 4.1s-.2 2.9-.2 4.4.1 3 .3 4.5c.1.8.2 1.5.4 2.3.1.4.2.7.2 1.1.1.4.2.7.3 1.1.5 1.4 1.1 2.7 1.9 3.9.7 1.2 1.6 2.2 2.4 3.1.8.9 1.8 1.6 2.6 1.8.7.2 1.3-.9 1.7-1.9.4-1.1.8-2.4 1-3.7.3-1.3.5-2.7.6-4.1 0-1.4-.2-3-.5-4.5s-.8-3-1.5-4.3c-1.3-2.5-2.9-4.9-4.5-7z" fill="#e4b3ab" stroke-width="none" opacity="1"></path><path id="SvgjsPath60639" d="M56.8 93.1c1.5 1.2 2.9 3.3 3.5 5.7 0 .2-.1.2-.2.1 0 0 0-.1-.1-.1-.4-.5-1-1.1-1.4-1-.8.1-.6 1.4-.3 2.5.4 1.5 1 2.8 1.7 4.1.1.1 0 .3-.1.2-1-1.4-2.5-4.4-2.3-6.4.2-1.7 1.4-1 2.2-.1-.6-1.3-1.2-2.4-2-3.4-1-1.2-3.2-3.1-3.5-.6 0 .1-.2.1-.2-.1-.1-2.3 1.7-1.7 2.7-.9z" fill="#d4958a" stroke-width="none" opacity="1"></path><path id="SvgjsPath60640" d="M60.7 107.4c.9 2.4-.6 3.1-1.6 2.1-1.6-1.6-2.9-5.2-3.2-8.2 0-.2.1-.2.2 0 .3 1.7.6 3.2 1.3 4.7.4.9.9 1.9 1.4 2.5.3.5.7.8 1.1 1 .8-.1 1.1-.8.7-2.1-.1 0 0-.1.1 0z" fill="#d4958a" stroke-width="none" opacity="1"></path></g></g><g id="svga-group-ears-right-move" transform="matrix(1,0,0,1,0,0)"><g id="svga-group-ears-right" transform="matrix(1,0,0,1,0,0)"><path id="SvgjsPath60641" d="M136.5 96.9s3-5.1 4.6-7.4c1.7-2.3 3.8-4.7 4.6-.7s.8 11.6-.3 16.9c-1.1 5.2-5.8 10.5-7.8 10.5s-3.4-7.9-3.3-10.6 1.1-6.7 2.2-8.7z" fill="#f3d4cf" stroke-width="none" opacity="1"></path><path id="SvgjsPath60642" d="M138.5 87.9c.7-1.3 5.9-1.8 6-1.8s.3.1.4.2c.1 0 .1.1.2.1l.2.2c.4.5.6 1.3.8 2 .5 2.9.4 6 .3 9-.1 1.5-.1 3.1-.3 4.6-.1.8-.2 1.5-.3 2.3-.1.4-.1.8-.2 1.2l-.3 1.2c-.4 1.6-1.1 3-1.8 4.3s-1.6 2.5-2.5 3.5c-.2.3-.5.5-.7.7s-.5.4-.7.6c-.5.4-1 .7-1.6.9-.2 0-.3.1-.5.1s-.3-.1-.5-.1c-.3-.1-.5-.4-.7-.6-.4-.5-.7-1.1-.9-1.7-.5-1.3-.8-2.6-1-4.1-.2-1.4-.4-2.9-.4-4.5.1-1.6.4-3.2.8-4.7.2-.8-.3-4.2 0-4.9.3-.8 3-7.2 3.7-8.5zm-1.9 9.1c-.7 1.3-1.1 2.8-1.5 4.3-.3 1.5-.5 3-.5 4.5.1 1.4.3 2.8.6 4.1.3 1.3.6 2.6 1 3.7s1 2.2 1.7 1.9c.8-.2 1.8-1 2.6-1.8.9-.9 1.7-1.9 2.4-3.1s1.4-2.4 1.9-3.9c.1-.4.2-.7.3-1.1s.2-.7.2-1.1c.1-.8.3-1.5.4-2.3.2-1.5.3-3 .3-4.5s0-3-.2-4.4c-.1-1.4-.3-2.8-.6-4.1-.1-.6-.3-1.2-.6-1.5s-.6-.4-1-.2c-.8.5-1.7 1.5-2.5 2.5-1.5 2.1-3.1 4.5-4.5 7z" fill="#e4b3ab" stroke-width="none" opacity="1"></path><path id="SvgjsPath60643" d="M143.2 93.1c-1.5 1.2-2.9 3.3-3.5 5.7 0 .2.1.2.2.1 0 0 0-.1.1-.1.4-.5 1-1.1 1.4-1 .8.1.6 1.4.3 2.5-.4 1.5-1 2.8-1.7 4.1-.1.1 0 .3.1.2 1-1.4 2.5-4.4 2.3-6.4-.2-1.7-1.4-1-2.2-.1.6-1.3 1.2-2.4 2-3.4 1-1.2 3.2-3.1 3.5-.6 0 .1.2.1.2-.1.1-2.3-1.7-1.7-2.7-.9z" fill="#d4958a" stroke-width="none" opacity="1"></path><path id="SvgjsPath60644" d="M139.3 107.4c-.9 2.4.6 3.1 1.6 2.1 1.6-1.6 2.9-5.2 3.2-8.2 0-.2-.1-.2-.2 0-.3 1.7-.6 3.2-1.3 4.7-.4.9-.9 1.9-1.4 2.5-.3.5-.7.8-1.1 1-.8-.1-1.1-.8-.7-2.1.1 0 0-.1-.1 0z" fill="#d4958a" stroke-width="none" opacity="1"></path></g></g><g id="svga-group-faceshape-wrap" transform="matrix(1,0,0,1,0,0)"><g id="svga-group-faceshape-single"><path id="SvgjsPath60675" d="M141 88.4c0 30.3-18.9 65.2-41 65.2s-41-34.9-41-65.2 18.9-47 41-47 41 16.6 41 47z" fill="#f3d4cf" stroke-width="none" opacity="1"></path><path id="SvgjsPath60676" d="M100 41.3c-22.1 0-41.1 16.7-41.1 47s19 65.5 41.1 65.5 41.1-35.2 41.1-65.5-19-47-41.1-47zm28.2 13.6.8.8c.3.3.5.6.8.9.3.3.5.6.8.9l.7.9c.2.3.5.6.7.9l.7 1 .3.5.3.5c.4.7.9 1.3 1.2 2l.6 1c.2.3.4.7.5 1l.5 1.1.5 1.1c.2.4.3.7.5 1.1l.4 1.1c2.3 5.9 3.2 12.4 3.3 18.7 0 6.4-.9 12.8-2.6 18.9-.8 3.1-1.9 6.1-3.1 9-1.2 2.9-2.5 5.8-4 8.6s-3.1 5.5-4.8 8.1c-.9 1.3-1.8 2.6-2.7 3.8-.9 1.2-1.9 2.4-3 3.6-2 2.3-4.3 4.4-6.7 6.3-2.4 1.8-5 3.3-7.8 4.3-1.4.5-2.8.9-4.3 1-1.5.2-2.9.2-4.4.1-3-.2-5.9-1.2-8.6-2.6-2.7-1.4-5.3-3.3-7.6-5.4-2.3-2.1-4.4-4.5-6.3-7.1s-3.6-5.3-5-8.1c-1.5-2.8-2.8-5.7-3.9-8.7-.6-1.5-1.1-3-1.6-4.5s-.9-3-1.3-4.6c-.8-3.1-1.4-6.2-1.8-9.3-.4-3.1-.7-6.3-.8-9.4 0-1.6 0-3.1.1-4.7 0-.8.1-1.6.1-2.3l.2-2.3c.3-3.1.9-6.2 1.7-9.1.8-3 1.8-5.9 3.2-8.6.2-.4.3-.7.5-1l.5-1c.4-.7.8-1.3 1.2-2 .4-.6.8-1.3 1.3-1.9l.7-.9.3-.5.4-.4c1.9-2.4 4.1-4.5 6.5-6.3s5-3.3 7.8-4.5 5.7-2 8.6-2.5c.7-.2 1.5-.2 2.2-.3.4-.1.8-.1 1.1-.1l1.1-.1c.8 0 1.5-.1 2.3-.1H102.6l1.1.1c.4 0 .8.1 1.1.1.4 0 .8.1 1.1.1l1.1.2.6.1.6.1 1.1.2c.4.1.7.2 1.1.3s.7.2 1.1.3c1.4.4 2.9.9 4.3 1.5s2.8 1.2 4.1 2c2.7 1.5 5.2 3.3 7.4 5.4l.4.4.5.3z" fill="#c5796d" stroke-width="none" opacity="1"></path></g></g><g id="svga-group-mouth-single-move" transform="matrix(1,0,0,1,0,0)"><g id="svga-group-mouth-single" transform="matrix(1,0,0,1,0,0)"><path id="SvgjsPath60625" d="M90 128.1s2 2.6 4 3.8 9.4 1.3 13.4-.2 7.5-6.6 8.1-7.8c0 0-2.9 1.9-7.1 1.5-4.3-.3-13.7.8-15.6 1.6s-2.8 1.1-2.8 1.1z" fill="#da7c87" stroke-width="none" opacity="1" transform="translate(0 3)"></path><path id="SvgjsPath60626" d="M117.2 121.6c-.5-.4-1-.6-1.6-.4-.4.1-.4.7-.1.8.1.1.2.1.3.2l-.6.6c-.7.8-2.3 2.2-5.3.8-3-1.4-5.1-1.8-7.1-.5s-2.7.9-4.6.2c-1.9-.6-4.3.4-5.5 1.7-1.2 1.3-2.2 2.6-4.1 2s-.8.5-.8.5c.2.1 1.5 1.1 2.5 1.4 1.1.2 2.1-.5 4.5-1.2s8.1-1.2 11.9-1.1c5.4.2 6.8-.6 8.3-1.8.7-.6 1.2-1.1 1.5-1.6.1.2.2.4.4.5.3.2.8.1.9-.3.2-.8-.2-1.4-.6-1.8z" fill="#d26d79" stroke-width="none" opacity="1" transform="translate(0 3)"></path><path id="SvgjsPath60627" d="M95.7 129.5c3.4 0 7.4.1 10.8-.9.5-.1.5-.8 0-1-3.4-1-7.7-.1-10.9 1.2-.3.2-.3.7.1.7z" fill="#e28c96" stroke-width="none" opacity="1" transform="translate(0 3)"></path></g></g><g id="svga-group-eyes-left-move" transform="matrix(1,0,0,1,0,0)"><g id="svga-group-eyes-left" transform="matrix(1,0,0,1,0,0)"><g id="svga-group-eyesback-left"><path id="SvgjsPath60762" d="M92.2 101.8s-.6-1.9-2-3.8-3.3-3.9-6.6-4.5c-3.3-.6-12.1 2.2-12.1 2.2s1.4 1.9 3.1 3.1 6.3 2.9 8.2 2.8c1.9-.1 4.2-.5 5.2-.5 1.2 0 3.2 0 4.2.7z" fill="#ffffff" stroke-width="none" opacity="1"></path></g><g id="svga-group-eyesiriswrapper-left" transform="matrix(1,0,0,1,0,0)"><g id="svga-group-eyesiriscontrol-left" transform="matrix(1,0,0,1,0,0)"><g id="svga-group-eyesiris-left" transform="matrix(1,0,0,1,0,0)"><path id="SvgjsPath60710" d="M82 91.2c2.9 0 5.2 2.3 5.2 5.2s-2.3 5.2-5.2 5.2-5.2-2.3-5.2-5.2 2.3-5.2 5.2-5.2z" fill="#7b5c33" stroke-width="none" opacity="1"></path><path id="SvgjsPath60711" d="M82 101.8c-3 0-5.4-2.4-5.4-5.4S79 91 82 91s5.4 2.4 5.4 5.4-2.4 5.4-5.4 5.4zm0-10.3c-2.7 0-4.9 2.2-4.9 4.9s2.2 4.9 4.9 4.9 4.9-2.2 4.9-4.9-2.2-4.9-4.9-4.9z" fill="#5c3d14" stroke-width="none" opacity="1"></path><path id="SvgjsPath60712" d="M86.9 96.4c-.6 0-1.3-.1-1.9 0 0-.3 0-.5-.1-.8.7-.1 1.5-.3 2.2-.6.2-.1.1-.3-.1-.3-.7.1-1.5.4-2.2.6 0-.1-.1-.2-.1-.3.3-.1.6-.3.8-.4.4-.2.8-.2 1.1-.4.1-.1.1-.2-.1-.2-.6.1-1.4.4-2 .8 0-.1-.1-.1-.1-.2.2-.2.4-.3.7-.5.3-.2.7-.5 1-.8.1-.1 0-.3-.2-.2-.3.3-.7.5-1 .8-.2.2-.4.3-.6.5l-.3-.3c.5-.6.9-1.2 1.2-1.9.1-.1-.1-.2-.1-.1-.5.5-1 1.2-1.3 1.8-.1-.1-.2-.1-.3-.2.2-.7.3-1.5.3-2.2 0-.2-.2-.2-.3 0-.1.5-.2 1.1-.2 1.6 0 .2-.1.3-.1.5-.2-.1-.3-.1-.5-.1 0-.7-.1-1.5-.3-2.2 0-.1-.1 0-.1 0-.1.7-.1 1.4-.1 2.1h-.4c0-.2-.1-.4-.1-.6-.1-.5-.1-.9-.2-1.4 0-.1-.2-.1-.2 0-.1.6 0 1.3.2 2-.1 0-.2 0-.2.1-.2-.7-.4-1.4-.7-2.1 0-.1-.2-.1-.2 0 .1.7.3 1.4.6 2.1 0 0-.1 0-.1.1-.3-.7-.8-1.3-1.3-1.9-.1-.1-.2 0-.1.1.3.6.7 1.3 1.2 1.9-.1.1-.2.1-.2.2-.1-.1-.2-.3-.3-.4-.3-.4-.7-.9-1.1-1.2-.1-.1-.2 0-.2.1.2.4.6.8.9 1.2.1.2.3.3.4.5-.1.1-.2.2-.3.4-.6-.4-1.2-.9-1.8-1.2-.1 0-.1.1-.1.1.5.5 1.1.9 1.7 1.3-.1.2-.2.3-.2.5-.1 0-.2-.1-.3-.1-.6-.2-1.2-.5-1.7-.7-.1-.1-.2.2-.1.2.5.2 1 .5 1.5.7.2.1.3.1.5.2 0 .1 0 .2-.1.3-.2 0-.3-.1-.5-.1-.5-.1-1.1-.2-1.6-.1-.1 0-.1.2 0 .2.6.2 1.4.3 2.1.4v.4c-.3.1-.6.2-.9.4-.4.2-.8.2-1.1.5-.1.1-.1.3.1.3.4 0 .9-.2 1.3-.4.2-.1.5-.2.7-.3 0 .2.1.3.1.4-.1.1-.2.1-.3.2-.5.3-1 .6-1.4 1-.1.1 0 .3.2.2.6-.3 1.1-.6 1.6-.9.1 0 .1-.1.2-.1.1.1.2.3.2.4-.5.4-1 1-1.5 1.5-.1.1 0 .2.1.1.5-.4 1.1-.9 1.6-1.4l.3.3c-.2.2-.3.4-.4.6-.3.4-.6.8-.9 1.3-.1.1.1.2.2.1.3-.4.7-.8 1-1.2.2-.2.3-.4.5-.6.1 0 .1.1.2.1-.1.2-.1.3-.2.4-.2.4-.5.9-.6 1.4 0 .1.2.2.2.1.3-.4.5-.9.8-1.4.1-.1.1-.2.2-.4h.1c-.3.7-.5 1.4-.6 2.1 0 .1.2.1.2 0 .2-.7.5-1.4.7-2.1.1 0 .2 0 .3.1-.2.7-.2 1.5-.3 2.2 0 .2.3.2.3 0 0-.7.2-1.5.2-2.2h.2c-.1.7-.1 1.4 0 2.1 0 .2.3.2.3 0-.1-.7 0-1.4-.1-2.1.2 0 .4-.1.6-.1.1.3.3.7.4 1 .2.3.2.7.6.9.1 0 .1 0 .1-.1 0-.3-.2-.7-.4-1-.2-.3-.3-.7-.5-1 .1 0 .1-.1.2-.1.1.3.3.6.4.8.2.3.3.8.6 1 .1.1.2 0 .2-.1-.1-.4-.4-.7-.6-1.1-.2-.3-.3-.6-.5-.8.1-.1.2-.1.3-.2.3.6.8 1.2 1.3 1.7.2.2.4-.1.2-.2-.5-.5-.9-1-1.3-1.6.2-.2.4-.4.5-.6.6.4 1.1.8 1.7 1.2.1.1.3-.1.2-.2-.5-.4-1.2-.8-1.8-1.2 0-.1.1-.1.1-.2.6.3 1.3.7 1.9.9.1.1.2-.2.1-.2-.6-.3-1.3-.6-1.9-.8.1-.2.2-.5.2-.8.7.1 1.3.1 2 .1-.2.3-.2-.2-.5-.2z" fill="#5c3d14" stroke-width="none" opacity="1"></path><path id="SvgjsPath60713" d="M82 93.6c1.5 0 2.8 1.3 2.8 2.8s-1.3 2.8-2.8 2.8-2.8-1.3-2.8-2.8 1.3-2.8 2.8-2.8z" fill="#000000" stroke-width="none" opacity="1"></path><path id="SvgjsPath60714" d="M80.4 94c.6 0 1.1.5 1.1 1.1s-.5 1.1-1.1 1.1-1.1-.5-1.1-1.1.5-1.1 1.1-1.1zm3.4 4c.3 0 .6.3.6.6s-.3.6-.6.6-.6-.3-.6-.6.3-.6.6-.6z" fill="#ffffff" stroke-width="none" opacity="1"></path></g></g></g><g id="svga-group-eyesfront-left"><path id="SvgjsPath60770" d="M70.7 98c0 6.9 4.9 12.5 11 12.5s11-5.6 11-12.5-4.9-12.5-11-12.5-11 5.6-11 12.5zm.9-2.3s8.8-2.9 12.1-2.2c3.3.6 5.3 2.6 6.6 4.5 1.4 1.9 2 3.8 2 3.8-1-.7-3.1-.7-4.1-.7-1.1 0-3.3.5-5.2.5-1.9.1-6.4-1.7-8.2-2.8-1.9-1.2-3.2-3.1-3.2-3.1z" fill="#f3d4cf" stroke-width="none" opacity="1"></path><path id="SvgjsPath60771" d="M71.4 96c.2.3.4.6.7.9-.8-.2-1.8 0-2.4.5-.1.1 0 .2.1.2.5-.2 1.1-.3 1.7-.3.5 0 .9.2 1.3.4.1.1.2.2.4.3-.6.1-1.1.4-1.4.8-.1.1 0 .3.1.2.5-.3 1.1-.5 1.6-.7 1.7 1.4 3.7 2.4 5.6 3 1.7.5 3.4.8 5.2.6 2.7-.3 5.1-1.4 7.8 0 .1.1.2-.1.1-.2.1 0 .1-.1.1-.2-1.2-4.4-4.7-8.2-9.4-9.1-1.9-.3-3.7 0-5.5.5-1.2-.3-2.1-.9-3.1-1.8-.1-.1-.3 0-.2.2.5.9 1.5 1.6 2.5 1.9-.3.1-.6.2-.8.3-1.8.1-3.2-.6-4.6-1.7-.1-.1-.3.1-.2.2.9 1.1 2.3 1.7 3.7 1.9-.5.2-.9.3-1.4.4-1.9 0-3.5-.6-5.2-1.7-.1-.1-.2.1-.1.2 1 1.1 2.5 1.8 4 1.9-2.3.5-4.4.3-6.8-1.2-.1-.1-.3.1-.2.2 2.2 1.9 4.3 2.4 6.4 2.3zm.5 0c1.3-.1 2.7-.5 4.2-1 3.2-1 7-1.9 10.1-.2 2.8 1.5 4.4 4.1 5.8 6.8-2.9-1.5-5.7-.3-8.8-.5-4.5-.2-8-2.4-11.3-5.1z" fill="#191c29" stroke-width="none" opacity="1"></path></g></g></g><g id="svga-group-eyes-right-move" transform="matrix(1,0,0,1,0,0)"><g id="svga-group-eyes-right" transform="matrix(1,0,0,1,0,0)"><g id="svga-group-eyesback-right"><path id="SvgjsPath60763" d="M107.8 101.8s.6-1.9 2-3.8 3.3-3.9 6.6-4.5c3.3-.6 12.1 2.2 12.1 2.2s-1.4 1.9-3.1 3.1-6.3 2.9-8.2 2.8c-1.9-.1-4.2-.5-5.2-.5-1.2 0-3.2 0-4.2.7z" fill="#ffffff" stroke-width="none" opacity="1"></path></g><g id="svga-group-eyesiriswrapper-right" transform="matrix(1,0,0,1,0,0)"><g id="svga-group-eyesiriscontrol-right" transform="matrix(1,0,0,1,0,0)"><g id="svga-group-eyesiris-right" transform="matrix(1,0,0,1,0,0)"><path id="SvgjsPath60715" d="M118 91.2c2.9 0 5.2 2.3 5.2 5.2s-2.3 5.2-5.2 5.2-5.2-2.3-5.2-5.2 2.3-5.2 5.2-5.2z" fill="#7b5c33" stroke-width="none" opacity="1"></path><path id="SvgjsPath60716" d="M118 101.8c-3 0-5.4-2.4-5.4-5.4S115 91 118 91s5.4 2.4 5.4 5.4-2.4 5.4-5.4 5.4zm0-10.3c-2.7 0-4.9 2.2-4.9 4.9s2.2 4.9 4.9 4.9 4.9-2.2 4.9-4.9-2.2-4.9-4.9-4.9z" fill="#5c3d14" stroke-width="none" opacity="1"></path><path id="SvgjsPath60717" d="M122.9 96.4c-.6 0-1.3-.1-1.9 0 0-.3 0-.5-.1-.8.7-.1 1.5-.3 2.2-.6.2-.1.1-.3-.1-.3-.7.1-1.5.4-2.2.6 0-.1-.1-.2-.1-.3.3-.1.6-.3.8-.4.4-.2.8-.2 1.1-.4.1-.1.1-.2-.1-.2-.6.1-1.4.4-2 .8 0-.1-.1-.1-.1-.2.2-.2.4-.3.7-.5.3-.2.7-.5 1-.8.1-.1 0-.3-.2-.2-.3.3-.7.5-1 .8-.2.2-.4.3-.6.5l-.3-.3c.5-.6.9-1.2 1.2-1.9.1-.1-.1-.2-.1-.1-.5.5-1 1.2-1.3 1.8-.1-.1-.2-.1-.3-.2.2-.7.3-1.5.3-2.2 0-.2-.2-.2-.3 0-.1.5-.2 1.1-.2 1.6 0 .2-.1.3-.1.5-.2-.1-.3-.1-.5-.1 0-.7-.1-1.5-.3-2.2 0-.1-.1 0-.1 0-.1.7-.1 1.4-.1 2.1h-.4c0-.2-.1-.4-.1-.6-.1-.5-.1-.9-.2-1.4 0-.1-.2-.1-.2 0-.1.6 0 1.3.2 2-.1 0-.2 0-.2.1-.2-.7-.4-1.4-.7-2.1 0-.1-.2-.1-.2 0 .1.7.3 1.4.6 2.1 0 0-.1 0-.1.1-.3-.7-.8-1.3-1.3-1.9-.1-.1-.2 0-.1.1.3.6.7 1.3 1.2 1.9-.1.1-.2.1-.2.2-.1-.1-.2-.3-.3-.4-.3-.4-.7-.9-1.1-1.2-.1-.1-.2 0-.2.1.2.4.6.8.9 1.2.1.2.3.3.4.5-.1.1-.2.2-.3.4-.6-.4-1.2-.9-1.8-1.2-.1 0-.1.1-.1.1.5.5 1.1.9 1.7 1.3-.1.2-.2.3-.2.5-.1 0-.2-.1-.3-.1-.6-.2-1.2-.5-1.7-.7-.1-.1-.2.2-.1.2.5.2 1 .5 1.5.7.2.1.3.1.5.2 0 .1 0 .2-.1.3-.2 0-.3-.1-.5-.1-.5-.1-1.1-.2-1.6-.1-.1 0-.1.2 0 .2.6.2 1.4.3 2.1.4v.4c-.3.1-.6.2-.9.4-.4.2-.8.2-1.1.5-.1.1-.1.3.1.3.4 0 .9-.2 1.3-.4.2-.1.5-.2.7-.3 0 .2.1.3.1.4-.1.1-.2.1-.3.2-.5.3-1 .6-1.4 1-.1.1 0 .3.2.2.6-.3 1.1-.6 1.6-.9.1 0 .1-.1.2-.1.1.1.2.3.2.4-.5.4-1 1-1.5 1.5-.1.1 0 .2.1.1.5-.4 1.1-.9 1.6-1.4l.3.3c-.2.2-.3.4-.4.6-.3.4-.6.8-.9 1.3-.1.1.1.2.2.1.3-.4.7-.8 1-1.2.2-.2.3-.4.5-.6.1 0 .1.1.2.1-.1.2-.1.3-.2.4-.2.4-.5.9-.6 1.4 0 .1.2.2.2.1.3-.4.5-.9.8-1.4.1-.1.1-.2.2-.4h.1c-.3.7-.5 1.4-.6 2.1 0 .1.2.1.2 0 .2-.7.5-1.4.7-2.1.1 0 .2 0 .3.1-.2.7-.2 1.5-.3 2.2 0 .2.3.2.3 0 0-.7.2-1.5.2-2.2h.2c-.1.7-.1 1.4 0 2.1 0 .2.3.2.3 0-.1-.7 0-1.4-.1-2.1.2 0 .4-.1.6-.1.1.3.3.7.4 1 .2.3.2.7.6.9.1 0 .1 0 .1-.1 0-.3-.2-.7-.4-1-.2-.3-.3-.7-.5-1 .1 0 .1-.1.2-.1.1.3.3.6.4.8.2.3.3.8.6 1 .1.1.2 0 .2-.1-.1-.4-.4-.7-.6-1.1-.2-.3-.3-.6-.5-.8.1-.1.2-.1.3-.2.3.6.8 1.2 1.3 1.7.2.2.4-.1.2-.2-.5-.5-.9-1-1.3-1.6.2-.2.4-.4.5-.6.6.4 1.1.8 1.7 1.2.1.1.3-.1.2-.2-.5-.4-1.2-.8-1.8-1.2 0-.1.1-.1.1-.2.6.3 1.3.7 1.9.9.1.1.2-.2.1-.2-.6-.3-1.3-.6-1.9-.8.1-.2.2-.5.2-.8.7.1 1.3.1 2 .1-.2.3-.2-.2-.5-.2z" fill="#5c3d14" stroke-width="none" opacity="1"></path><path id="SvgjsPath60718" d="M118 93.6c1.5 0 2.8 1.3 2.8 2.8s-1.3 2.8-2.8 2.8-2.8-1.3-2.8-2.8 1.3-2.8 2.8-2.8z" fill="#000000" stroke-width="none" opacity="1"></path><path id="SvgjsPath60719" d="M116.5 94c.6 0 1.1.5 1.1 1.1s-.5 1.1-1.1 1.1-1.1-.5-1.1-1.1.5-1.1 1.1-1.1zm3.4 4c.3 0 .6.3.6.6s-.3.6-.6.6-.6-.3-.6-.6.3-.6.6-.6z" fill="#ffffff" stroke-width="none" opacity="1"></path></g></g></g><g id="svga-group-eyesfront-right"><path id="SvgjsPath60772" d="M118.3 85.5c-6.1 0-11 5.6-11 12.5s4.9 12.5 11 12.5 11-5.6 11-12.5-5-12.5-11-12.5zm7 13.3c-1.7 1.2-6.3 2.9-8.2 2.8-1.9-.1-4.2-.5-5.2-.5-1.1 0-3.1 0-4.1.7 0 0 .6-1.9 2-3.8s3.3-3.9 6.6-4.5c3.3-.6 12.1 2.2 12.1 2.2s-1.4 1.9-3.2 3.1z" fill="#f3d4cf" stroke-width="none" opacity="1"></path><path id="SvgjsPath60775" d="M134.8 93.7c.1-.1 0-.3-.2-.2-2.4 1.5-4.5 1.7-6.8 1.2 1.5-.1 2.9-.8 4-1.9.1-.1 0-.3-.1-.2-1.6 1.2-3.3 1.8-5.2 1.7-.4-.1-.9-.3-1.4-.4 1.4-.1 2.9-.7 3.7-1.9.1-.1-.1-.3-.2-.2-1.5 1.1-2.8 1.8-4.6 1.7-.3-.1-.6-.2-.8-.3 1-.3 2-1 2.5-1.9.1-.1-.1-.3-.2-.2-1 .9-1.9 1.5-3.1 1.8-1.8-.5-3.6-.8-5.5-.5-4.6.9-8.1 4.6-9.4 9.1 0 .1 0 .2.1.2-.1.1 0 .2.1.2 2.7-1.4 5.1-.3 7.8 0 1.8.2 3.5-.1 5.2-.6 1.9-.6 3.9-1.7 5.6-3 .6.2 1.1.4 1.6.7.1.1.2-.1.1-.2-.4-.4-.9-.7-1.4-.8.1-.1.2-.2.4-.3.4-.2.8-.4 1.3-.4.6 0 1.1.1 1.7.3.1 0 .2-.1.1-.2-.6-.5-1.5-.7-2.4-.5.2-.3.5-.6.7-.9 2.3.1 4.4-.4 6.4-2.3zm-18 7.5c-3.1.2-5.9-1-8.8.5 1.3-2.7 3-5.3 5.8-6.8 3.2-1.7 6.9-.8 10.1.2 1.5.5 2.9.8 4.2 1-3.3 2.6-6.8 4.8-11.3 5.1z" fill="#191c29" stroke-width="none" opacity="1"></path></g></g></g><g id="svga-group-facehighlight-single"></g><g id="svga-group-eyebrows-left-move" transform="matrix(1,0,0,1,0,-1)"><g id="svga-group-eyebrows-left-rotate" transform="matrix(0.9825664732332883,-0.1859116071629146,0.1859116071629146,0.9825664732332883,-14.580343965010329,16.43981547060821)"><g id="svga-group-eyebrows-left" transform="matrix(0.8999996000000001,0,0,0.8999996000000001,8.036747082162464,8.596284919059741)"><path id="SvgjsPath60811" d="M68.8 86s.1 0 0 0c.1-.1.1-.1.1-.2.3-.6.9-1 1.4-1.3.6-.4 1.3-.9 1.9-1.3h.1c1.5-1.1 4-1.3 6-.8 1.9.2 3.8.8 5 1.3.1 0 .2.1.4.1 1.6.3 3.3.6 4.8 1.2 1.5.3 3 .5 4.4 1h.1c.1-.1.4 0 .4.2.1.2.1.4 0 .7.2 0 .3.1.3.3-.1.5-.3.9-.6 1.3v.1c-.3.8-.9 1.1-1.8 1-.1 0-.2 0-.4-.1-.1.1-.2.1-.3.1-1.6-.1-3.2-.8-4.6-1.4-.9-.4-1.9-.8-2.8-1.3-1.4-.2-2.8-.6-4.2-.9-1.3-.3-2.8-.3-4-.8-.4.1-.9.1-1.3.2-.3.1-.6.2-1 .2-1 .3-2.2.8-3.2.9h-.1c-.1 0-.1.1-.2.1-.2.2-.4.4-.7.5-.1 0-.3-.1-.3-.2 0-.5.3-.7.6-.9z" fill="#6b4e40" stroke-width="none" opacity="1"></path><path id="SvgjsPath60812" d="M89.9 85.4c1.3.8 1.5 2.8 1.3 4.2 0 .3-.5.3-.6 0-.2-.7-.2-1.4-.3-2.1-.2-.6-.4-1.1-.7-1.7-.1-.3.1-.6.3-.4zm-3.2-.9c2.1.4 3.4 2.9 3.6 4.8 0 .2-.3.2-.3.1-.2-1-.6-1.9-1.2-2.7-.6-.8-1.4-1.3-2.2-2-.1-.1 0-.3.1-.2zM81 83.1c.9.2 1.9 1 2.6 1.7.7.7 1.3 1.5 1.5 2.4 0 .2-.2.3-.3.2-.5-.8-.9-1.6-1.7-2.2-.7-.6-1.6-1-2.2-1.8-.1-.2-.1-.3.1-.3zM76.3 82c2.3 0 4.7 2.1 5.4 4.2.1.2-.2.3-.3.1-.6-.9-1.2-1.8-2.1-2.5-.9-.7-1.9-1-3-1.4-.3-.1-.3-.4 0-.4zm-5.6 2.4c2.1-2.7 6.2-1.8 7.9.8.1.2-.2.4-.3.2-1-.9-2.1-1.9-3.5-2-1.5-.2-2.7.8-3.9 1.3-.3.1-.3-.2-.2-.3z" fill="#7a6155" stroke-width="none" opacity="1"></path><path id="SvgjsPath60813" d="M92.1 90.3c1.6-.4 2-2.2 2-3.7 0-.3-.4-.3-.5-.1-.2.6-.4 1.3-.7 1.8-.3.5-.7.8-1.1 1 .4-1.2.2-2.6-.6-3.7.6.1 1.1.3 1.7.4.2 0 .3-.2.1-.3-2.7-1-5.6-1.6-8.3-2.4-2.4-.7-4.9-1.4-7.3-1.7-4.6-.6-7.6 2.4-10.3 5.7-.1.1-.2.2-.3.2-.4.3 0 .9.4.6 2.5-1.5 5-2.4 7.9-2.4 3.1.1 6.2 1.1 9.2 2.1 1.6.6 3.1 1.2 4.6 1.8 1 .6 2.1 1 3.2.7zm-20-6.8c1-.7 2.1-1 3.1-1.1.8.4 1.6.8 2.3 1.4.5.5.9 1.1 1.3 1.6-.1 0-.2-.1-.4-.1-3.4-.7-6.6-.4-9.5 1 1-1 2-2 3.2-2.8zm19.3 6c-.5 0-1.1-.1-1.7-.3-1.2-.4-2.4-1-3.6-1.5-.2-.1-.4-.1-.6-.2 0-.9-.3-1.8-.9-2.4-.1-.1-.3 0-.2.2.3.7.7 1.4.9 2.1-.8-.3-1.5-.6-2.3-.8-.7-1.5-2.1-3.1-3.6-3.8-.2-.1-.3.2-.2.3.6.6 1.3 1 1.9 1.7.5.5.9 1.1 1.3 1.7-1-.3-1.9-.6-2.9-.8-.2-.8-.9-1.6-1.5-2.1-.4-.4-1-.8-1.5-1.1.9 0 1.9.1 2.8.3 3.8.8 7.6 1.9 11.4 2.8.8 1.2 1 2.5.7 3.9z" fill="#5c3d2e" stroke-width="none" opacity="1"></path></g></g></g><g id="svga-group-eyebrows-right-move" transform="matrix(1,0,0,1,0,-1)"><g id="svga-group-eyebrows-right-rotate" transform="matrix(0.9825664725843343,0.18591161059271857,-0.18591161059271857,0.9825664725843343,18.097236823496218,-20.730293386992358)"><g id="svga-group-eyebrows-right" transform="matrix(0.8999996000000001,0,0,0.8999996000000001,11.958330685304247,8.61299183403166)"><path id="SvgjsPath60814" d="M131.2 86s-.1 0 0 0c-.1-.1-.1-.1-.1-.2-.3-.6-.9-1-1.4-1.3-.6-.4-1.3-.9-1.9-1.3h-.1c-1.5-1.1-4-1.3-6-.8-1.9.2-3.8.8-5 1.3-.1 0-.2.1-.4.1-1.6.3-3.3.6-4.8 1.2-1.5.3-3 .5-4.4 1h-.1c-.1-.1-.4 0-.4.2-.1.2-.1.4 0 .7-.2 0-.3.1-.3.3.1.5.3.9.6 1.3v.1c.3.8.9 1.1 1.8 1 .1 0 .2 0 .4-.1.1.1.2.1.3.1 1.6-.1 3.2-.8 4.6-1.4.9-.4 1.9-.8 2.8-1.3 1.4-.2 2.8-.6 4.2-.9 1.3-.3 2.8-.3 4-.8.4.1.9.1 1.3.2.3.1.6.2 1 .2 1 .3 2.2.8 3.2.9h.1c.1 0 .1.1.2.1.2.2.4.4.7.5.1 0 .3-.1.3-.2 0-.5-.3-.7-.6-.9z" fill="#6b4e40" stroke-width="none" opacity="1"></path><path id="SvgjsPath60815" d="M110.1 85.4c-1.3.8-1.5 2.8-1.3 4.2 0 .3.5.3.6 0 .2-.7.2-1.4.3-2.1.2-.6.4-1.1.7-1.7.1-.3-.1-.6-.3-.4zm3.2-.9c-2.1.4-3.4 2.9-3.6 4.8 0 .2.3.2.3.1.2-1 .6-1.9 1.2-2.7.6-.8 1.4-1.3 2.2-2 .1-.1 0-.3-.1-.2zm5.7-1.4c-.9.2-1.9 1-2.6 1.7-.7.7-1.3 1.5-1.5 2.4 0 .2.2.3.3.2.5-.8.9-1.6 1.7-2.2.7-.6 1.6-1 2.2-1.8.1-.2.1-.3-.1-.3zm4.7-1.1c-2.3 0-4.7 2.1-5.4 4.2-.1.2.2.3.3.1.6-.9 1.2-1.8 2.1-2.5.9-.7 1.9-1 3-1.4.3-.1.3-.4 0-.4zm5.6 2.4c-2.1-2.7-6.2-1.8-7.9.8-.1.2.2.4.3.2 1-.9 2.1-1.9 3.5-2 1.5-.2 2.7.8 4 1.3.2.1.2-.2.1-.3z" fill="#7a6155" stroke-width="none" opacity="1"></path><path id="SvgjsPath60816" d="M111.1 89.8c1.5-.6 3.1-1.2 4.6-1.8 2.9-1 6.1-2.1 9.2-2.1 2.9-.1 5.5.9 7.9 2.4.4.2.8-.4.4-.6-.1-.1-.2-.2-.4-.2-2.7-3.3-5.7-6.2-10.3-5.7-2.5.3-4.9 1.1-7.3 1.7-2.8.8-5.6 1.4-8.3 2.4-.2.1-.1.3.1.3.6-.1 1.1-.2 1.7-.4-.8 1-1 2.5-.6 3.7-.4-.1-.8-.4-1.1-1-.3-.6-.4-1.2-.7-1.8-.1-.2-.5-.2-.5.1.1 1.4.5 3.2 2 3.7 1.2.1 2.3-.3 3.3-.7zm19.9-3.5c-3-1.4-6.2-1.7-9.5-1-.1 0-.2.1-.4.1.4-.5.8-1.1 1.3-1.6.7-.6 1.5-.9 2.3-1.4 1.1.1 2.1.5 3.1 1.1 1.3.8 2.3 1.8 3.2 2.8zm-21.6-.7c3.8-.9 7.6-2 11.4-2.8 1-.2 1.9-.3 2.8-.3-.6.3-1.1.7-1.5 1.1-.6.5-1.3 1.3-1.5 2.1-1 .2-2 .5-2.9.8.4-.6.8-1.2 1.3-1.7.6-.6 1.3-1.1 1.9-1.7.1-.1 0-.3-.2-.3-1.5.6-2.9 2.2-3.6 3.8-.8.2-1.6.5-2.3.8.2-.7.5-1.4.9-2.1.1-.2-.1-.3-.2-.2-.6.6-.9 1.6-.9 2.4-.2.1-.4.1-.6.2-1.2.5-2.4 1.1-3.6 1.5-.6.2-1.2.4-1.7.3-.4-1.4-.2-2.7.7-3.9z" fill="#5c3d2e" stroke-width="none" opacity="1"></path></g></g></g><g id="svga-group-nose-single-move" transform="matrix(1,0,0,1,0,0)"><g id="svga-group-nose-single" transform="matrix(1,0,0,1,0,0)"><path id="SvgjsPath60802" d="M104.93 107.57c-.14-.18-.45.05-.32.25.84 1.29 1.76 2.56 2.54 3.89.53.9 1.07 2.03.7 3.12-.61 1.79-2.18 1.68-3.45 1 .48-.61.75-1.33.69-2.12-.02-.19-.29-.37-.44-.18-1.26 1.59-2.06 3.25-4.41 3.34-2.48.1-4.08-1.91-4.73-4.07-.06-.19-.32-.14-.33.04-.07.99.25 1.95.79 2.76-.36.07-.73.14-1.09.16-1.15.07-1.34-.02-2.11-.98-.8-1.01-.81-1.27-.36-2.39.21-.53.52-.98.82-1.45.97-1.52 1.84-3.06 2.48-4.75 1.29-3.37 1.85-7.09 1.22-10.66-.03-.15-.26-.11-.27.04-.01 2.89-.19 5.74-1.04 8.52-.88 2.88-2.54 5.04-3.92 7.64-.72 1.35-1.02 3.12.21 4.28 1.22 1.15 3.1.78 4.52.24.85.92 2.02 1.56 3.26 1.67 1.4.12 3.23-.55 4.36-1.7 1.31 1.45 3.82.78 4.47-1.08 1.01-2.82-2.06-5.64-3.59-7.57z" fill="#c5796d" stroke-width="none" opacity="1" transform="translate(0 2)"></path><path id="SvgjsPath60803" d="M102 110.13c-.8-.75-2.07-.97-2.97-.27-.33.25-.52.57-.61.9-.16.05-.3.14-.44.27-.68.67-.39 1.71.19 2.34.5.53 1.31.78 2.02.75.88-.05 1.67-.46 2.16-1.2.57-.86.4-2.09-.35-2.79z" fill="#fbe5e2" stroke-width="none" opacity="1" transform="translate(0 2)"></path></g></g><g id="svga-group-hair-front" transform="matrix(1,0,0,1,0,0)"><path id="SvgjsPath60857" d="M145.8 79.1c-6.6-37.7-19.9-40.4-23.5-41.7-3.3-1.2-11.7-2.2-22 3-3-4-17.7-4.4-21.3-3s-18.8 6.2-24.8 44.9c-4.5 29.3.6 83.5.6 83.5 9.3 4.5 21.5 5.3 21.5 5.3s-2.7-16.4-6.5-42.9.4-47.5 3.5-57.8C76.4 60 80 55.6 84.6 54.6c4.3-1 14.4 2.9 16 3.5v.1h.2v-.1c1.6-.6 11.7-4.5 16-3.5 4.6 1 7.2 6.3 10.3 16.7 3.1 10.3 8.3 30.4 4.4 56.9-3.9 26.5-6.5 42.9-6.5 42.9s12.2-.8 21.5-5.3c-.1 0 4.3-57.6-.7-86.7z" fill="#f1d2c4" stroke-width="none" opacity="1"></path><path id="SvgjsPath60858" d="M131.4 128.6c1-5.2 2.1-14 2.5-28.2.7-26.4-10.7-47.2-14.3-50.2s-19 7.5-19 7.5-11.5-6.6-16.2-7.5c-4.7-.9-8.2 2.1-11.6 12.3s-5.5 23-5.4 39.1c.1 11.2 1.7 22.5 2.6 28.2-.1-.6-.2-1.1-.2-1.7-3.9-26.5.4-47.5 3.5-57.8 3.1-10.4 6.7-14.8 11.3-15.8 4.3-1 14.4 2.9 16 3.5v.1h.2V58c1.6-.6 11.7-4.5 16-3.5 4.6 1 7.2 6.3 10.3 16.7 3.1 10.3 8.3 30.4 4.4 56.9-.1.3-.1.4-.1.5zM99.5 54s-9-6.2-14.3-7.4S73.9 50.3 72 58.4c0 0-.2-4.2 4.6-10.8 4.9-6.8 15.3.2 22.9 6.4zm1.4.9s.2-8.5 0-13.2c0 .1-.9 6.5 0 13.2zm3.7-3.2s6.5-5.1 12-5.8c5.5-.7 10.8 10.8 10.8 10.8s-6.2-9.7-9.9-9.5c-3.7.3-12.9 4.5-12.9 4.5zM133 73.6s4.9 21.7 2.5 46.2-6 47.8-6 47.8 5.8-22.6 7.6-45.3c1.9-22.6-4.1-48.7-4.1-48.7zm7.6-.7s3.2 30.5 2.8 50.6c-.5 20.1-1.9 39.5-1.9 39.5s2.8-23.8 3-43.9c.3-20-3.9-46.2-3.9-46.2zM64.9 92.6s-.5 49 7.4 74.6c0 0-5.8-13.6-7.6-39.3-1.9-25.6.2-35.3.2-35.3zm-.2 74.1s-5.5-23.6-6-45.5c0 0-3 22.9 6 45.5zm8-121.5S57.6 64.5 57.4 93.5c0 0-3.2-27.6 15.3-48.3z" fill="#e2b5a1" stroke-width="none" opacity="1"></path><path id="SvgjsPath60859" d="M101.8 54.8s9.9-7.7 15.7-7.5c5.8.2 12 12.9 15.9 29.5s1.3 65-4.9 89.8c0 0 5.4-39.1 5.7-52.8.3-13.7.5-30-4.7-47.4-5.2-17.3-10.6-17.6-12.7-17.9-2-.2-15 6.3-15 6.3zm-3.3.8s-8.5-9.3-17.1-8c-8.6 1.2-13.5 24-15.3 41.4-1.8 17.3 4.4 66 8.3 79.5 0 0-4.4-32.1-5.7-44-1.3-11.9-2.1-33.7.3-46.1s6.7-24.1 9.6-27.4c2.8-3.5 10-2.9 19.9 4.6zM61.4 77.3s-4.7 39.6 4.9 87c.1 0-7.2-52-4.9-87zM136 75s7.5 32.4.3 89.3c0 0 9.8-56.7-.3-89.3zm-25.1-30.8s4.7-2.7 7.8-2.1c6 1.3 7 5.7 7 5.7s-2.9-7-14.8-3.6z" fill="#fff0e9" stroke-width="none" opacity="1"></path></g><g id="svga-group-glasses-single-move" transform="matrix(1,0,0,1,0,0)"><g id="svga-group-glasses-single" transform="matrix(1,0,0,1,0,0)"></g></g></g></g></g><rect id="svga-credit-rect" width="200" height="15" x="0" y="185" fill="#ecf0f1" opacity="0.5" style="display: none;"></rect><text id="svga-credit-text" font-family="Avenir Next, Roboto, Helvetica, Arial, sans-serif" font-size="10px" text-anchor="start" font-weight="400" size="10px" anchor="start" weight="400" fill="#333333" x="33.409568786621094" y="182.62832975387573" style="display: none;"><tspan id="SvgjsTspan47995" dy="13" x="33.409568786621094">Created on AvatarMaker.com</tspan></text></g></svg>